inDegrees=yes
name=ik_lifting_orientations
DataType=double
version=3
OpenSimVersion=4.5-2024-01-10-34fd6af
endheader
time	pelvis_tilt	pelvis_list	pelvis_rotation	pelvis_tx	pelvis_ty	pelvis_tz	hip_flexion_r	hip_adduction_r	hip_rotation_r	knee_angle_r	knee_angle_r_beta	ankle_angle_r	subtalar_angle_r	mtp_angle_r	hip_flexion_l	hip_adduction_l	hip_rotation_l	knee_angle_l	knee_angle_l_beta	ankle_angle_l	subtalar_angle_l	mtp_angle_l	lumbar_extension	lumbar_bending	lumbar_rotation	arm_flex_r	arm_add_r	arm_rot_r	elbow_flex_r	pro_sup_r	wrist_flex_r	wrist_dev_r	arm_flex_l	arm_add_l	arm_rot_l	elbow_flex_l	pro_sup_l	wrist_flex_l	wrist_dev_l
0.84	-7.325665092577998	16.78282042918854	100.6485744076108	0	0.9399999998679526	0	44.57196628884613	-10.32311479885909	0	60.21472046993333	1.050945130368364	-5.078538298371029	0	0	44.57196628884613	-10.32311479885909	0	60.21472046993333	1.050945130368364	-5.078538298371029	0	0	-61.26985275265412	32.12030982073432	18.83832136859809	49.72617979330996	-64.92163426856312	25.23519083091031	4.957253880677433	1.32329048329148	0	0	0	-11.19365605863724	0	88.65537773001093	1.32329048329148	0	0
0.85	-6.786615253052494	14.28773221677311	100.3431881589003	0	0.9399999998679526	0	44.57513091983613	-10.3168347904533	0	60.21321349250719	1.050918828650524	-5.076666006464689	0	0	44.57513091983613	-10.3168347904533	0	60.21321349250719	1.050918828650524	-5.076666006464689	0	0	-57.71572639606369	31.57657767509048	17.20655737606396	52.00782929084154	-64.87317208439647	29.33546807593553	4.702244048889413	1.315938115229946	0	0	0	-11.2102206594118	0	88.66284766145206	1.315938115229946	0	0
0.86	-6.495113156478314	12.77156078526826	100.1656771882398	0	0.9399999998679526	0	44.57854892965602	-10.31022308912665	0	60.21157486091941	1.05089022913409	-5.074710665568833	0	0	44.57854892965602	-10.31022308912665	0	60.21157486091941	1.05089022913409	-5.074710665568833	0	0	-55.15952462543982	30.22158355843118	16.70440002763215	49.66132656769936	-65.22953201322116	28.05259430967723	6.17602147459989	1.307959494121244	0	0	0	-11.22825593353856	0	88.67095385790824	1.307959494121244	0	0
0.87	-6.494554766520201	12.76241614631211	100.1574219953944	0	0.9399999998679526	0	44.57928393942585	-10.3081817107069	0	60.21129580155159	1.050885358629313	-5.074058567023185	0	0	44.57928393942585	-10.3081817107069	0	60.21129580155159	1.050885358629313	-5.074058567023185	0	0	-53.90185208296996	30.00629784321813	15.82723872889193	54.27033768056179	-67.44592146995633	33.67499660343115	3.813928191068674	1.306405245097624	0	0	0	-11.23150082568017	0	88.67253296617136	1.306405245097624	0	0
0.88	-6.210334301233328	11.24069702398097	99.99415442154874	0	0.9399999998679526	0	44.58058685785853	-10.30509321306597	0	60.21074226629329	1.05087569761653	-5.073102662381721	0	0	44.58058685785853	-10.30509321306597	0	60.21074226629329	1.05087569761653	-5.073102662381721	0	0	-51.37682334402773	29.43083687218703	14.18564494188532	61.42830780467119	-68.54299672977731	41.72523568391165	1.859323658122806	1.303516113793706	0	0	0	-11.2377768978396	0	88.67546830058647	1.303516113793706	0	0
0.89	-5.003864403915813	10.48183930233502	99.14343960668108	0	0.9399999998679526	0	44.58231527744294	-10.3012586826042	0	60.20998623176534	1.050862502324759	-5.071935892495245	0	0	44.58231527744294	-10.3012586826042	0	60.20998623176534	1.050862502324759	-5.071935892495245	0	0	-49.53891306628471	29.22220280941101	15.0447732743326	64.46504453592256	-70.4347593865396	45.73234339115172	0.2729046163961403	1.299623920069327	0	0	0	-11.2463320409344	0	88.6794227356547	1.299623920069327	0	0
0.9	-5.005932529242909	10.48134302605295	99.14598688888265	0	0.9399999998679526	0	44.58384357787342	-10.29846832234078	0	60.20923774532821	1.050849438772024	-5.071125326492468	0	0	44.58384357787342	-10.29846832234078	0	60.20923774532821	1.050849438772024	-5.071125326492468	0	0	-47.36782101657072	27.70895326901621	13.75080227306617	64.00015080719422	-72.04474662363891	46.3199113136135	0.07483110924880111	1.296016178249568	0	0	0	-11.2545532187053	0	88.68308816214463	1.296016178249568	0	0
0.91	-4.422795678398569	9.665916982786296	97.44056167071784	0	0.9399999998679526	0	44.58558272478944	-10.29467696120788	0	60.20847399224736	1.050836108766091	-5.069978517151829	0	0	44.58558272478944	-10.29467696120788	0	60.20847399224736	1.050836108766091	-5.069978517151829	0	0	-46.02832790535718	26.61705100041718	14.54695270166687	68.90830025708331	-73.52397761231755	51.76271742518606	0.04353139772158268	1.292087506037398	0	0	0	-11.26320777288146	0	88.68707965840673	1.292087506037398	0	0
0.92	-3.648967543728523	7.289435707731195	95.64386001408114	0	0.9399999998679526	0	44.58794428545919	-10.28975081212438	0	60.20740713088828	1.050817488522713	-5.068504050115879	0	0	44.58794428545919	-10.28975081212438	0	60.20740713088828	1.050817488522713	-5.068504050115879	0	0	-42.9565645405565	25.04159089321788	14.93605120983596	73.65100366773169	-74.84405132724119	57.49937117388551	0.04671152834733732	1.286692305078518	0	0	0	-11.2751989581674	0	88.69256113197822	1.286692305078518	0	0
0.93	-3.597035906654146	6.705585801521018	95.55404944452034	0	0.9399999998679526	0	44.58915121808586	-10.28677841138562	0	60.20693259751959	1.050809206353019	-5.067587651792824	0	0	44.58915121808586	-10.28677841138562	0	60.20693259751959	1.050809206353019	-5.067587651792824	0	0	-41.24354980234875	24.78143700619475	14.25294231886455	72.32405196723691	-75.3095737930757	56.61669860469232	0.03900994838941207	1.284073081687805	0	0	0	-11.28077689234857	0	88.69522224482449	1.284073081687805	0	0
0.9399999999999999	-3.436176456135525	5.747623042452665	95.5194937255538	0	0.9399999998679526	0	44.59147360128554	-10.28142097444163	0	60.20596895556799	1.050792387628153	-5.065958052327277	0	0	44.59147360128554	-10.28142097444163	0	60.20596895556799	1.050792387628153	-5.065958052327277	0	0	-38.25101429064984	23.31536301219105	13.25490656980982	75.9321855731545	-76.99647311651368	61.62500977229926	0.02596732928396156	1.278932180840079	0	0	0	-11.29190995206483	0	88.70044535947224	1.278932180840079	0	0
0.95	-4.059845526648233	5.705888183759292	94.62489642478987	0	0.9399999998679526	0	44.59208430315827	-10.27812042731493	0	60.20595877637079	1.050792209967647	-5.064845067911671	0	0	44.59208430315827	-10.27812042731493	0	60.20595877637079	1.050792209967647	-5.064845067911671	0	0	-37.06501540784166	21.31545895053201	12.38399512957912	100.1777266600494	-79.66501193773846	85.10130238516233	0.01575193738819058	1.278120254857586	0	0	0	-11.29270534381645	0	88.70127029513891	1.278120254857586	0	0
0.96	-3.05842439910582	5.262630065269069	93.81056353160592	0	0.9399999998679526	0	44.59326588655489	-10.27556053649629	0	60.2054537135181	1.050783394957938	-5.064080579183959	0	0	44.59326588655489	-10.27556053649629	0	60.2054537135181	1.050783394957938	-5.064080579183959	0	0	-35.60025544283263	20.21339526280771	12.50970779054189	104.3727759187121	-80.36069104453848	89.49054994039592	0.01435313790826865	1.275467999129474	0	0	0	-11.2985109538663	0	88.70396496430008	1.275467999129474	0	0
0.97	-2.927361534332382	4.296959613428802	93.79296212942218	0	0.9399999998679526	0	44.59533607728698	-10.27201851497155	0	60.20442801822422	1.050765493197937	-5.063078251953359	0	0	44.59533607728698	-10.27201851497155	0	60.20442801822422	1.050765493197937	-5.063078251953359	0	0	-32.67292618851716	15.7818956477305	10.19606067740889	107.0090340213838	-82.0513254829206	89.85100910188491	0.009114085697909533	1.270535840097309	0	0	0	-11.30981780765676	0	88.70897598234342	1.270535840097309	0	0
0.98	-3.54289188746596	4.284440489842714	92.88667237988668	0	0.9399999998679526	0	44.61471979406125	-10.23569957501124	0	60.19659382242405	1.050628760686978	-5.052955102792894	0	0	44.61471979406125	-10.23569957501124	0	60.19659382242405	1.050628760686978	-5.052955102792894	0	0	-32.04522371447329	13.66908155396994	9.059423892610141	107.5845774942365	-81.7618821160825	89.86912506031486	0.008716094529134426	1.226762331330395	0	0	0	-11.40544580578921	0	88.75344947101306	1.226762331330395	0	0
0.99	-2.43503364136877	2.84624797957828	92.08904691528011	0	0.9399999998679526	0	44.62238070028902	-10.22245921383977	0	60.19329110580307	1.050571117407682	-5.049315315448498	0	0	44.62238070028902	-10.22245921383977	0	60.19329110580307	1.050571117407682	-5.049315315448498	0	0	-27.46393893928484	11.71665116623772	7.791869602791428	105.4627110170883	-81.67087409460586	89.88835103470187	0.00728904770874576	1.20906028697244	0	0	0	-11.44484403152322	0	88.77143457155438	1.20906028697244	0	0
